<?xml version="1.0" encoding="UTF-8" standalone="no"?>
<svg version="1.1" xmlns="http://www.w3.org/2000/svg" xmlns:xlink="http://www.w3.org/1999/xlink" width="369.28" height="122.88">
	<g id="dp_dp001" transform="matrix(1,0,0,1,-77.724,-234.424)">
		<path id="dp_path002" fill="white" fill-rule="evenodd" stroke="none" stroke-width="0" d="M 97.1467,262.468 L 101.768,263.091 C 101.267,266.26 99.9773,268.744 97.9067,270.535 C 95.8347,272.327 93.2933,273.224 90.28,273.224 C 86.5013,273.224 83.4667,271.984 81.168,269.508 C 78.8707,267.033 77.724,263.481 77.724,258.86 C 77.724,255.873 78.2173,253.255 79.204,251.015 C 80.1947,248.775 81.6973,247.091 83.7147,245.971 C 85.7333,244.851 87.928,244.291 90.3013,244.291 C 93.3013,244.291 95.7547,245.051 97.6573,246.571 C 99.564,248.091 100.787,250.251 101.324,253.047 L 96.7467,253.757 C 96.3147,251.9 95.5467,250.5 94.448,249.561 C 93.3507,248.624 92.0213,248.157 90.4667,248.157 C 88.1107,248.157 86.2,249.001 84.728,250.695 C 83.2573,252.388 82.524,255.068 82.524,258.731 C 82.524,262.447 83.2347,265.148 84.6533,266.833 C 86.0747,268.517 87.928,269.357 90.2133,269.357 C 92.048,269.357 93.5813,268.793 94.808,267.668 C 96.04,266.54 96.8173,264.807 97.1467,262.468 Z "/>
		<path id="dp_path003" fill="white" fill-rule="evenodd" stroke="none" stroke-width="0" d="M 105.839,272.601 L 105.839,234.424 L 110.505,234.424 L 110.505,248.1 C 112.688,245.561 115.435,244.291 118.759,244.291 C 120.799,244.291 122.572,244.695 124.079,245.504 C 125.585,246.313 126.661,247.428 127.311,248.851 C 127.959,250.277 128.284,252.344 128.284,255.055 L 128.284,272.601 L 123.617,272.601 L 123.617,255.06 C 123.617,252.713 123.111,251.007 122.097,249.94 C 121.084,248.868 119.652,248.335 117.799,248.335 C 116.417,248.335 115.115,248.695 113.892,249.415 C 112.675,250.14 111.804,251.117 111.284,252.348 C 110.764,253.584 110.505,255.287 110.505,257.46 L 110.505,272.601 Z "/>
		<path id="dp_path004" fill="white" fill-rule="evenodd" stroke="none" stroke-width="0" d="M 135.519,272.601 L 135.519,244.913 L 139.696,244.913 L 139.696,249.108 C 140.776,247.148 141.772,245.855 142.688,245.228 C 143.603,244.601 144.608,244.291 145.705,244.291 C 147.292,244.291 148.905,244.793 150.541,245.797 L 148.915,250.135 C 147.768,249.468 146.621,249.135 145.475,249.135 C 144.452,249.135 143.532,249.441 142.715,250.06 C 141.901,250.677 141.319,251.535 140.968,252.628 C 140.448,254.3 140.185,256.121 140.185,258.104 L 140.185,272.601 Z "/>
		<path id="dp_path005" fill="white" fill-rule="evenodd" stroke="none" stroke-width="0" d="M 153.385,239.757 L 153.385,234.424 L 158.052,234.424 L 158.052,239.757 Z M 153.385,272.601 L 153.385,244.913 L 158.052,244.913 L 158.052,272.601 Z "/>
		<path id="dp_path006" fill="white" fill-rule="evenodd" stroke="none" stroke-width="0" d="M 163.277,264.335 L 167.9,263.624 C 168.163,265.473 168.887,266.891 170.083,267.877 C 171.273,268.864 172.94,269.357 175.083,269.357 C 177.243,269.357 178.843,268.917 179.887,268.041 C 180.931,267.167 181.456,266.14 181.456,264.957 C 181.456,263.9 180.997,263.068 180.077,262.46 C 179.437,262.047 177.837,261.517 175.287,260.873 C 171.843,260.007 169.46,259.251 168.131,258.62 C 166.803,257.984 165.793,257.104 165.109,255.984 C 164.42,254.864 164.077,253.624 164.077,252.268 C 164.077,251.033 164.363,249.891 164.927,248.841 C 165.491,247.788 166.26,246.917 167.229,246.22 C 167.957,245.681 168.953,245.224 170.211,244.851 C 171.473,244.477 172.824,244.291 174.264,244.291 C 176.437,244.291 178.344,244.601 179.984,245.228 C 181.624,245.855 182.837,246.704 183.62,247.775 C 184.397,248.847 184.94,250.277 185.233,252.068 L 180.656,252.691 C 180.447,251.268 179.843,250.153 178.843,249.357 C 177.843,248.557 176.433,248.157 174.607,248.157 C 172.451,248.157 170.913,248.513 169.993,249.224 C 169.073,249.935 168.611,250.767 168.611,251.721 C 168.611,252.331 168.803,252.877 169.184,253.361 C 169.567,253.864 170.167,254.281 170.984,254.611 C 171.451,254.784 172.833,255.184 175.131,255.807 C 178.447,256.695 180.763,257.42 182.069,257.984 C 183.371,258.548 184.397,259.371 185.14,260.451 C 185.883,261.527 186.256,262.864 186.256,264.464 C 186.256,266.028 185.797,267.5 184.887,268.881 C 183.976,270.264 182.66,271.335 180.94,272.091 C 179.22,272.847 177.277,273.224 175.104,273.224 C 171.509,273.224 168.771,272.477 166.887,270.984 C 165.003,269.487 163.797,267.273 163.277,264.335 Z "/>
		<path id="dp_path007" fill="white" fill-rule="evenodd" stroke="none" stroke-width="0" d="M 202.104,268.401 L 202.727,272.544 C 201.407,272.82 200.228,272.957 199.188,272.957 C 197.487,272.957 196.171,272.687 195.233,272.148 C 194.295,271.611 193.637,270.904 193.255,270.024 C 192.873,269.148 192.681,267.3 192.681,264.487 L 192.681,248.557 L 189.215,248.557 L 189.215,244.913 L 192.681,244.913 L 192.681,238.064 L 197.348,235.251 L 197.348,244.913 L 202.104,244.913 L 202.104,248.557 L 197.348,248.557 L 197.348,264.767 C 197.348,266.104 197.433,266.967 197.597,267.348 C 197.767,267.731 198.037,268.037 198.411,268.264 C 198.788,268.491 199.327,268.601 200.028,268.601 C 200.553,268.601 201.247,268.535 202.104,268.401 Z "/>
		<path id="dp_path008" fill="white" fill-rule="evenodd" stroke="none" stroke-width="0" d="M 204.939,258.757 C 204.939,253.633 206.361,249.833 209.201,247.367 C 211.575,245.317 214.472,244.291 217.885,244.291 C 221.681,244.291 224.784,245.54 227.192,248.033 C 229.601,250.527 230.805,253.971 230.805,258.367 C 230.805,261.931 230.272,264.731 229.205,266.771 C 228.139,268.815 226.588,270.401 224.552,271.531 C 222.517,272.66 220.295,273.224 217.885,273.224 C 214.019,273.224 210.895,271.98 208.512,269.495 C 206.131,267.011 204.939,263.433 204.939,258.757 Z M 209.739,258.744 C 209.739,262.291 210.512,264.944 212.055,266.708 C 213.601,268.473 215.544,269.357 217.885,269.357 C 220.211,269.357 222.144,268.473 223.691,266.7 C 225.232,264.927 226.005,262.22 226.005,258.588 C 226.005,255.161 225.228,252.571 223.677,250.807 C 222.121,249.041 220.192,248.157 217.885,248.157 C 215.544,248.157 213.601,249.037 212.055,250.793 C 210.512,252.548 209.739,255.197 209.739,258.744 Z "/>
		<path id="dp_path009" fill="white" fill-rule="evenodd" stroke="none" stroke-width="0" d="M 236.396,283.18 L 236.396,244.913 L 240.663,244.913 L 240.663,248.527 C 241.668,247.113 242.805,246.055 244.072,245.348 C 245.339,244.641 246.876,244.291 248.681,244.291 C 251.041,244.291 253.125,244.9 254.929,246.117 C 256.735,247.331 258.099,249.047 259.019,251.264 C 259.939,253.477 260.396,255.908 260.396,258.548 C 260.396,261.38 259.889,263.931 258.872,266.197 C 257.855,268.468 256.379,270.207 254.441,271.411 C 252.508,272.62 250.468,273.224 248.335,273.224 C 246.769,273.224 245.365,272.895 244.125,272.233 C 242.881,271.571 241.863,270.735 241.063,269.721 L 241.063,283.18 Z M 240.619,258.917 C 240.619,262.473 241.339,265.104 242.779,266.807 C 244.223,268.508 245.965,269.357 248.019,269.357 C 250.099,269.357 251.885,268.477 253.369,266.713 C 254.855,264.953 255.596,262.224 255.596,258.527 C 255.596,255.001 254.872,252.361 253.423,250.611 C 251.969,248.855 250.241,247.98 248.223,247.98 C 246.228,247.98 244.459,248.913 242.925,250.78 C 241.388,252.647 240.619,255.357 240.619,258.917 Z "/>
		<path id="dp_path010" fill="white" fill-rule="evenodd" stroke="none" stroke-width="0" d="M 266.121,272.601 L 266.121,234.424 L 270.788,234.424 L 270.788,248.1 C 272.971,245.561 275.717,244.291 279.041,244.291 C 281.081,244.291 282.855,244.695 284.361,245.504 C 285.868,246.313 286.944,247.428 287.593,248.851 C 288.241,250.277 288.567,252.344 288.567,255.055 L 288.567,272.601 L 283.9,272.601 L 283.9,255.06 C 283.9,252.713 283.393,251.007 282.38,249.94 C 281.367,248.868 279.935,248.335 278.081,248.335 C 276.7,248.335 275.397,248.695 274.175,249.415 C 272.957,250.14 272.087,251.117 271.567,252.348 C 271.047,253.584 270.788,255.287 270.788,257.46 L 270.788,272.601 Z "/>
		<path id="dp_path011" fill="white" fill-rule="evenodd" stroke="none" stroke-width="0" d="M 314.771,263.668 L 319.601,264.291 C 318.837,267.121 317.424,269.317 315.361,270.881 C 313.299,272.441 310.659,273.224 307.455,273.224 C 303.411,273.224 300.211,271.975 297.841,269.481 C 295.472,266.988 294.291,263.491 294.291,258.993 C 294.291,254.335 295.485,250.721 297.881,248.148 C 300.272,245.575 303.379,244.291 307.192,244.291 C 310.885,244.291 313.904,245.548 316.245,248.064 C 318.588,250.58 319.757,254.121 319.757,258.687 C 319.757,258.961 319.748,259.38 319.731,259.935 L 299.091,259.935 C 299.264,262.98 300.125,265.313 301.672,266.931 C 303.224,268.548 305.152,269.357 307.468,269.357 C 309.188,269.357 310.659,268.904 311.877,268.001 C 313.095,267.095 314.059,265.651 314.771,263.668 Z M 299.357,256.068 L 314.824,256.068 C 314.615,253.753 314.024,252.015 313.051,250.855 C 311.552,249.055 309.615,248.157 307.232,248.157 C 305.077,248.157 303.264,248.873 301.797,250.308 C 300.325,251.744 299.512,253.664 299.357,256.068 Z "/>
		<path id="dp_path012" fill="white" fill-rule="evenodd" stroke="none" stroke-width="0" d="M 325.525,272.601 L 325.525,244.913 L 329.703,244.913 L 329.703,249.108 C 330.783,247.148 331.779,245.855 332.695,245.228 C 333.609,244.601 334.615,244.291 335.712,244.291 C 337.299,244.291 338.912,244.793 340.548,245.797 L 338.921,250.135 C 337.775,249.468 336.628,249.135 335.481,249.135 C 334.459,249.135 333.539,249.441 332.721,250.06 C 331.908,250.677 331.325,251.535 330.975,252.628 C 330.455,254.3 330.192,256.121 330.192,258.104 L 330.192,272.601 Z "/>
		<path id="dp_path013" fill="white" fill-rule="evenodd" stroke="none" stroke-width="0" d="M 236.341,294.344 L 236.341,288.921 L 241.008,288.921 L 241.008,294.344 Z M 230.403,337.801 L 231.275,333.797 C 232.212,334.041 232.955,334.165 233.492,334.165 C 234.452,334.165 235.168,333.851 235.635,333.215 C 236.105,332.584 236.341,330.997 236.341,328.464 L 236.341,299.411 L 241.008,299.411 L 241.008,328.584 C 241.008,331.988 240.568,334.357 239.683,335.695 C 238.559,337.432 236.688,338.299 234.069,338.299 C 232.803,338.299 231.581,338.135 230.403,337.801 Z "/>
		<path id="dp_path014" fill="white" fill-rule="evenodd" stroke="none" stroke-width="0" d="M 266.257,323.632 C 264.524,325.125 262.848,326.184 261.24,326.797 C 259.627,327.415 257.897,327.721 256.053,327.721 C 253.004,327.721 250.661,326.979 249.027,325.495 C 247.387,324.011 246.568,322.112 246.568,319.805 C 246.568,318.451 246.88,317.215 247.497,316.095 C 248.115,314.975 248.924,314.077 249.924,313.397 C 250.928,312.721 252.053,312.211 253.311,311.864 C 254.231,311.619 255.627,311.384 257.488,311.157 C 261.284,310.708 264.08,310.171 265.875,309.544 C 265.893,308.899 265.901,308.485 265.901,308.312 C 265.901,306.392 265.457,305.037 264.568,304.255 C 263.364,303.188 261.573,302.655 259.2,302.655 C 256.981,302.655 255.347,303.041 254.288,303.819 C 253.235,304.597 252.453,305.971 251.947,307.944 L 247.368,307.321 C 247.787,305.357 248.475,303.771 249.431,302.557 C 250.391,301.348 251.773,300.419 253.587,299.765 C 255.395,299.112 257.493,298.788 259.88,298.788 C 262.248,298.788 264.173,299.068 265.653,299.624 C 267.128,300.179 268.217,300.877 268.915,301.721 C 269.613,302.565 270.097,303.628 270.377,304.917 C 270.533,305.717 270.613,307.157 270.613,309.241 L 270.613,315.491 C 270.613,319.851 270.711,322.605 270.901,323.765 C 271.093,324.925 271.471,326.037 272.035,327.099 L 267.147,327.099 C 266.684,326.112 266.391,324.957 266.257,323.632 Z M 265.857,313.232 C 264.155,313.925 261.595,314.512 258.191,314.997 C 256.257,315.272 254.893,315.588 254.093,315.931 C 253.293,316.277 252.68,316.784 252.244,317.451 C 251.808,318.117 251.591,318.859 251.591,319.672 C 251.591,320.917 252.067,321.957 253.013,322.788 C 253.964,323.619 255.351,324.032 257.181,324.032 C 258.991,324.032 260.6,323.637 262.013,322.851 C 263.421,322.059 264.457,320.979 265.12,319.615 C 265.621,318.561 265.875,317.001 265.875,314.944 Z "/>
		<path id="dp_path015" fill="white" fill-rule="evenodd" stroke="none" stroke-width="0" d="M 277.897,327.099 L 277.897,299.411 L 282.075,299.411 L 282.075,303.277 C 282.945,301.925 284.097,300.841 285.541,300.019 C 286.981,299.197 288.625,298.788 290.465,298.788 C 292.515,298.788 294.195,299.211 295.505,300.059 C 296.821,300.908 297.745,302.091 298.284,303.615 C 300.484,300.397 303.341,298.788 306.871,298.788 C 309.625,298.788 311.745,299.548 313.231,301.068 C 314.711,302.588 315.452,304.931 315.452,308.095 L 315.452,327.099 L 310.785,327.099 L 310.785,309.641 C 310.785,307.765 310.635,306.411 310.328,305.584 C 310.021,304.757 309.465,304.095 308.661,303.588 C 307.857,303.085 306.915,302.832 305.831,302.832 C 303.871,302.832 302.244,303.481 300.951,304.775 C 299.657,306.072 299.008,308.148 299.008,311.001 L 299.008,327.099 L 294.341,327.099 L 294.341,309.095 C 294.341,307.005 293.959,305.441 293.195,304.397 C 292.425,303.352 291.172,302.832 289.431,302.832 C 288.111,302.832 286.888,303.179 285.764,303.877 C 284.639,304.571 283.825,305.588 283.319,306.931 C 282.817,308.268 282.564,310.201 282.564,312.721 L 282.564,327.099 Z "/>
		<path id="dp_path016" fill="white" fill-rule="evenodd" stroke="none" stroke-width="0" d="M 322.312,294.255 L 322.312,288.921 L 326.979,288.921 L 326.979,294.255 Z M 322.312,327.099 L 322.312,299.411 L 326.979,299.411 L 326.979,327.099 Z "/>
		<path id="dp_path017" fill="white" fill-rule="evenodd" stroke="none" stroke-width="0" d="M 352.996,318.165 L 357.827,318.788 C 357.063,321.619 355.649,323.815 353.587,325.379 C 351.524,326.939 348.884,327.721 345.68,327.721 C 341.636,327.721 338.436,326.472 336.067,323.979 C 333.697,321.485 332.516,317.988 332.516,313.491 C 332.516,308.832 333.711,305.219 336.107,302.645 C 338.497,300.072 341.604,298.788 345.417,298.788 C 349.111,298.788 352.129,300.045 354.471,302.561 C 356.813,305.077 357.983,308.619 357.983,313.184 C 357.983,313.459 357.973,313.877 357.956,314.432 L 337.316,314.432 C 337.489,317.477 338.351,319.811 339.897,321.428 C 341.449,323.045 343.377,323.855 345.693,323.855 C 347.413,323.855 348.884,323.401 350.103,322.499 C 351.32,321.592 352.284,320.148 352.996,318.165 Z M 337.583,310.565 L 353.049,310.565 C 352.84,308.251 352.249,306.512 351.276,305.352 C 349.777,303.552 347.84,302.655 345.457,302.655 C 343.303,302.655 341.489,303.371 340.023,304.805 C 338.551,306.241 337.737,308.161 337.583,310.565 Z "/>
		<path id="dp_path018" fill="white" fill-rule="evenodd" stroke="none" stroke-width="0" d="M 361.928,318.832 L 366.551,318.121 C 366.813,319.971 367.537,321.388 368.733,322.375 C 369.924,323.361 371.591,323.855 373.733,323.855 C 375.893,323.855 377.493,323.415 378.537,322.539 C 379.581,321.664 380.107,320.637 380.107,319.455 C 380.107,318.397 379.648,317.565 378.728,316.957 C 378.088,316.544 376.488,316.015 373.937,315.371 C 370.493,314.504 368.111,313.748 366.781,313.117 C 365.453,312.481 364.444,311.601 363.76,310.481 C 363.071,309.361 362.728,308.121 362.728,306.765 C 362.728,305.531 363.013,304.388 363.577,303.339 C 364.141,302.285 364.911,301.415 365.88,300.717 C 366.608,300.179 367.604,299.721 368.861,299.348 C 370.124,298.975 371.475,298.788 372.915,298.788 C 375.088,298.788 376.995,299.099 378.635,299.725 C 380.275,300.352 381.488,301.201 382.271,302.272 C 383.048,303.344 383.591,304.775 383.884,306.565 L 379.307,307.188 C 379.097,305.765 378.493,304.651 377.493,303.855 C 376.493,303.055 375.084,302.655 373.257,302.655 C 371.101,302.655 369.564,303.011 368.644,303.721 C 367.724,304.432 367.261,305.264 367.261,306.219 C 367.261,306.828 367.453,307.375 367.835,307.859 C 368.217,308.361 368.817,308.779 369.635,309.108 C 370.101,309.281 371.484,309.681 373.781,310.304 C 377.097,311.192 379.413,311.917 380.72,312.481 C 382.021,313.045 383.048,313.868 383.791,314.948 C 384.533,316.024 384.907,317.361 384.907,318.961 C 384.907,320.525 384.448,321.997 383.537,323.379 C 382.627,324.761 381.311,325.832 379.591,326.588 C 377.871,327.344 375.928,327.721 373.755,327.721 C 370.16,327.721 367.421,326.975 365.537,325.481 C 363.653,323.984 362.448,321.771 361.928,318.832 Z "/>
		<path id="dp_path019" fill="white" fill-rule="evenodd" stroke="none" stroke-width="0" d="M 388.799,313.255 C 388.799,308.131 390.221,304.331 393.061,301.864 C 395.435,299.815 398.332,298.788 401.745,298.788 C 405.541,298.788 408.644,300.037 411.052,302.531 C 413.461,305.024 414.665,308.468 414.665,312.864 C 414.665,316.428 414.132,319.228 413.065,321.268 C 411.999,323.312 410.448,324.899 408.412,326.028 C 406.377,327.157 404.155,327.721 401.745,327.721 C 397.879,327.721 394.755,326.477 392.372,323.992 C 389.991,321.508 388.799,317.931 388.799,313.255 Z M 393.599,313.241 C 393.599,316.788 394.372,319.441 395.915,321.205 C 397.461,322.971 399.404,323.855 401.745,323.855 C 404.071,323.855 406.004,322.971 407.551,321.197 C 409.092,319.424 409.865,316.717 409.865,313.085 C 409.865,309.659 409.088,307.068 407.537,305.304 C 405.981,303.539 404.052,302.655 401.745,302.655 C 399.404,302.655 397.461,303.535 395.915,305.291 C 394.372,307.045 393.599,309.695 393.599,313.241 Z "/>
		<path id="dp_path020" fill="white" fill-rule="evenodd" stroke="none" stroke-width="0" d="M 420.256,327.099 L 420.256,299.411 L 424.435,299.411 L 424.435,303.344 C 426.465,300.308 429.403,298.788 433.243,298.788 C 434.909,298.788 436.443,299.085 437.843,299.685 C 439.239,300.285 440.288,301.072 440.981,302.045 C 441.675,303.019 442.163,304.175 442.439,305.512 C 442.612,306.384 442.701,307.904 442.701,310.077 L 442.701,327.099 L 438.035,327.099 L 438.035,310.241 C 438.035,308.331 437.852,306.899 437.488,305.952 C 437.123,305.001 436.475,304.245 435.545,303.681 C 434.616,303.117 433.523,302.832 432.275,302.832 C 430.275,302.832 428.549,303.468 427.101,304.739 C 425.648,306.005 424.923,308.415 424.923,311.965 L 424.923,327.099 Z "/>
		<path id="dp_path021" fill="white" fill-rule="evenodd" stroke="none" stroke-width="0" d="M 319.564,356.921 L 314.117,341.651 L 317.46,341.651 L 321.327,352.957 L 325.073,341.651 L 328.34,341.651 L 322.885,356.921 Z "/>
		<path id="dp_path022" fill="white" fill-rule="evenodd" stroke="none" stroke-width="0" d="M 329.264,349.38 C 329.264,347.823 329.497,346.516 329.963,345.46 C 330.309,344.681 330.783,343.983 331.384,343.364 C 331.984,342.745 332.643,342.287 333.357,341.988 C 334.308,341.584 335.405,341.384 336.648,341.384 C 338.899,341.384 340.697,342.083 342.048,343.48 C 343.397,344.875 344.073,346.819 344.073,349.307 C 344.073,351.775 343.403,353.704 342.063,355.097 C 340.724,356.491 338.932,357.188 336.691,357.188 C 334.42,357.188 332.613,356.495 331.275,355.108 C 329.935,353.721 329.264,351.812 329.264,349.38 Z M 332.447,349.275 C 332.447,351.008 332.847,352.323 333.645,353.216 C 334.443,354.111 335.456,354.557 336.685,354.557 C 337.913,354.557 338.921,354.112 339.709,353.225 C 340.496,352.339 340.891,351.008 340.891,349.235 C 340.891,347.48 340.507,346.171 339.741,345.309 C 338.973,344.447 337.955,344.015 336.685,344.015 C 335.413,344.015 334.389,344.452 333.613,345.325 C 332.836,346.197 332.447,347.515 332.447,349.275 Z "/>
		<path id="dp_path023" fill="white" fill-rule="evenodd" stroke="none" stroke-width="0" d="M 346.409,356.921 L 346.409,341.651 L 349.485,341.651 L 349.485,356.921 Z "/>
		<path id="dp_path024" fill="white" fill-rule="evenodd" stroke="none" stroke-width="0" d="M 362.192,351.304 L 365.179,352.228 C 364.72,353.907 363.96,355.152 362.893,355.967 C 361.828,356.781 360.475,357.188 358.837,357.188 C 356.811,357.188 355.144,356.495 353.839,355.108 C 352.533,353.721 351.881,351.827 351.881,349.421 C 351.881,346.877 352.537,344.901 353.851,343.493 C 355.163,342.088 356.889,341.384 359.028,341.384 C 360.896,341.384 362.415,341.935 363.581,343.037 C 364.276,343.689 364.797,344.627 365.144,345.845 L 362.085,346.575 C 361.907,345.784 361.529,345.16 360.957,344.701 C 360.384,344.244 359.689,344.015 358.872,344.015 C 357.741,344.015 356.824,344.421 356.12,345.236 C 355.416,346.051 355.064,347.369 355.064,349.192 C 355.064,351.125 355.411,352.504 356.104,353.325 C 356.799,354.147 357.7,354.557 358.811,354.557 C 359.629,354.557 360.333,354.296 360.923,353.773 C 361.513,353.248 361.936,352.427 362.192,351.304 Z "/>
		<path id="dp_path025" fill="white" fill-rule="evenodd" stroke="none" stroke-width="0" d="M 367.849,356.921 L 367.849,341.651 L 379.156,341.651 L 379.156,344.228 L 370.925,344.228 L 370.925,347.605 L 378.588,347.605 L 378.588,350.184 L 370.925,350.184 L 370.925,354.344 L 379.441,354.344 L 379.441,356.921 Z "/>
		<path id="dp_path026" fill="white" fill-rule="evenodd" stroke="none" stroke-width="0" d="M 387.349,349.38 C 387.349,347.823 387.583,346.516 388.048,345.46 C 388.395,344.681 388.868,343.983 389.469,343.364 C 390.069,342.745 390.728,342.287 391.443,341.988 C 392.393,341.584 393.491,341.384 394.733,341.384 C 396.984,341.384 398.783,342.083 400.133,343.48 C 401.483,344.875 402.159,346.819 402.159,349.307 C 402.159,351.775 401.488,353.704 400.148,355.097 C 398.809,356.491 397.017,357.188 394.776,357.188 C 392.505,357.188 390.699,356.495 389.36,355.108 C 388.02,353.721 387.349,351.812 387.349,349.38 Z M 390.532,349.275 C 390.532,351.008 390.932,352.323 391.731,353.216 C 392.528,354.111 393.541,354.557 394.771,354.557 C 395.999,354.557 397.007,354.112 397.795,353.225 C 398.581,352.339 398.976,351.008 398.976,349.235 C 398.976,347.48 398.592,346.171 397.827,345.309 C 397.059,344.447 396.04,344.015 394.771,344.015 C 393.499,344.015 392.475,344.452 391.699,345.325 C 390.921,346.197 390.532,347.515 390.532,349.275 Z "/>
		<path id="dp_path027" fill="white" fill-rule="evenodd" stroke="none" stroke-width="0" d="M 408.484,356.921 L 403.037,341.651 L 406.38,341.651 L 410.247,352.957 L 413.993,341.651 L 417.26,341.651 L 411.805,356.921 Z "/>
		<path id="dp_path028" fill="white" fill-rule="evenodd" stroke="none" stroke-width="0" d="M 418.824,356.921 L 418.824,341.651 L 430.131,341.651 L 430.131,344.228 L 421.9,344.228 L 421.9,347.605 L 429.563,347.605 L 429.563,350.184 L 421.9,350.184 L 421.9,354.344 L 430.416,354.344 L 430.416,356.921 Z "/>
		<path id="dp_path029" fill="white" fill-rule="evenodd" stroke="none" stroke-width="0" d="M 433.047,356.921 L 433.047,341.651 L 439.541,341.651 C 441.173,341.651 442.361,341.787 443.1,342.061 C 443.84,342.335 444.433,342.824 444.879,343.524 C 445.323,344.224 445.545,345.027 445.545,345.928 C 445.545,347.072 445.207,348.019 444.533,348.765 C 443.86,349.509 442.853,349.981 441.513,350.175 C 442.18,350.564 442.731,350.992 443.164,351.459 C 443.599,351.924 444.185,352.751 444.921,353.939 L 446.789,356.921 L 443.1,356.921 L 440.865,353.595 C 440.073,352.405 439.529,351.657 439.236,351.348 C 438.944,351.039 438.633,350.825 438.305,350.712 C 437.979,350.596 437.46,350.539 436.751,350.539 L 436.123,350.539 L 436.123,356.921 Z M 436.123,348.104 L 438.407,348.104 C 439.889,348.104 440.815,348.041 441.184,347.917 C 441.552,347.791 441.841,347.576 442.049,347.269 C 442.257,346.964 442.363,346.581 442.363,346.125 C 442.363,345.609 442.225,345.195 441.951,344.879 C 441.676,344.564 441.287,344.363 440.788,344.28 C 440.537,344.245 439.785,344.228 438.533,344.228 L 436.123,344.228 Z "/>
	</g>
</svg>